# AST/ASF file generated using VICON BodyLanguage
# -----------------------------------------------
:version 1.10
:name VICON
:units
  mass 1.0
  length 0.45
  angle deg
:documentation
   .ast/.asf automatically generated from VICON data using
   VICON BodyBuilder and BodyLanguage model FoxedUp or BRILLIANT.MOD
:root
   order TX TY TZ RX RY RZ
   axis XYZ
   position 0 0 0  
   orientation 0 0 0 
:bonedata
  begin
     id 1 
     name lhipjoint
     direction 0.528046 -0.759594 0.379717 
     length 2.39752 
     axis 0 0 0  XYZ
  end
  begin
     id 2 
     name lfemur
     direction 0.34202 -0.939693 0  
     length 7.31175  
     axis 0 0 20  XYZ
    dof rx ry rz
    limits (-160.0 20.0)
           (-70.0 70.0)
           (-60.0 70.0)
  end
  begin
     id 3 
     name ltibia
     direction 0.34202 -0.939693 0   
     length 7.52482   
     axis 0 0 20   XYZ
    dof rx
    limits (-10.0 170.0)
  end
  begin
     id 4 
     name lfoot
     direction 0.0675379 -0.185559 0.980309   
     length 2.00961   
     axis -90 7.62852e-016 20   XYZ
    dof rx rz
    limits (-45.0 90.0)
           (-70.0 20.0)
  end
  begin
     id 5 
     name ltoes
     direction 1.5352e-011 -4.22286e-011 1   
     length 1.01383   
     axis -90 7.62852e-016 20   XYZ
    dof rx
    limits (-90.0 20.0)
  end
  begin
     id 6 
     name rhipjoint
     direction -0.510274 -0.769251 0.384544   
     length 2.36742  
     axis 0 0 0  XYZ 
  end
  begin
     id 7 
     name rfemur
     direction -0.34202 -0.939693 0   
     length 7.45325   
     axis 0 0 -20   XYZ
    dof rx ry rz
    limits (-160.0 20.0)
           (-70.0 70.0)
           (-70.0 60.0)
  end
  begin
     id 8 
     name rtibia
     direction -0.34202 -0.939693 0   
     length 7.49587   
     axis 0 0 -20   XYZ
    dof rx
    limits (-10.0 170.0)
 end
 begin
     id 9 
     name rfoot
     direction -0.106475 -0.292536 0.950308   
     length 2.20898  
     axis -90 -7.62852e-016 -20   XYZ
    dof rx rz
    limits (-45.0 90.0)
           (-20.0 70.0)
  end
  begin
     id 10 
     name rtoes
     direction -1.53597e-011 -4.22023e-011 1   
     length 1.10065   
     axis -90 -7.62852e-016 -20   XYZ
    dof rx
    limits (-90.0 20.0)
  end
  begin
     id 11 
     name lowerback
     direction 0.0260024 0.998026 -0.0571652   
     length 2.11214   
     axis 0 0 0   XYZ
    dof rx ry rz
    limits (-20.0 45.0)
           (-30.0 30.0)
           (-30.0 30.0)
  end
  begin
     id 12 
     name upperback
     direction 0.0216202 0.999542 -0.0211766   
     length 2.11689   
     axis 0 0 0   XYZ
    dof rx ry rz
    limits (-20.0 45.0)
           (-30.0 30.0)
           (-30.0 30.0)
  end
  begin
     id 13 
     name thorax
     direction 0.00883312 0.999944 0.00589057   
     length 2.11821   
     axis 0 0 0   XYZ
    dof rx ry rz
    limits (-20.0 45.0)
           (-30.0 30.0)
           (-30.0 30.0)
  end
  begin
     id 14 
     name lowerneck
     direction -0.059386 0.994433 0.0870401   
     length 1.81176   
     axis 0 0 0   XYZ
    dof rx ry rz
    limits (-20.0 45.0)
           (-30.0 30.0)
           (-30.0 30.0)
  end
  begin
     id 15 
     name upperneck
     direction 0.0506457 0.97328 -0.223967   
     length 1.82382   
     axis 0 0 0   XYZ
    dof rx ry rz
    limits (-20.0 45.0)
           (-30.0 30.0)
           (-30.0 30.0)
  end
  begin
     id 16
     name head
     direction 0.0205902 0.996147 -0.0852487  
     length 1.84805  
     axis 0 0 0   XYZ
    dof rx ry rz
    limits (-20.0 45.0)
           (-30.0 30.0)
           (-30.0 30.0)
  end
  begin
     id 17 
     name lclavicle
     direction 0.949493 0.303881 -0.0782325  
     length 3.60584  
     axis 0 0 0   XYZ
    dof ry rz
    limits (-20.0 10.0)
           (0.0 20.0)
  end
  begin
     id 18 
     name lhumerus
     direction 1 -4.48965e-011 1.48782e-027   
     length 4.95681   
     axis 180 -30 -90   XYZ
    dof rx ry rz
    limits (-60.0 90.0)
           (-90.0 90.0)
           (-90.0 90.0)
  end
  begin
     id 19
     name lradius
     direction 1 -4.48952e-011 2.06528e-027   
     length 3.40915   
     axis 180 -30 -90   XYZ
    dof rx
    limits (-10.0 170.0)
  end
  begin
     id 20
     name lwrist
     direction 1 -4.48964e-011 1.28021e-027   
     length 1.70457   
     axis -1.61767e-015 90 90   XYZ
    dof ry
    limits (-180.0 0.0)
 end
  begin
     id 21 
     name lhand
     direction 1 -4.49094e-011 2.54887e-027   
     length 0.616403   
     axis -1.63363e-015 90 90   XYZ
    dof rx rz
    limits (-90.0 90.0)
           (-45.0 45.0)
  end
  begin
     id 22 
     name lfingers
     direction 1 -4.49002e-011 5.11407e-027   
     length 0.49696   
     axis -3.26723e-015 90 90   XYZ
    dof rx
    limits (0.0 90.0)
  end
  begin
     id 23
     name lthumb
     direction 0.707107 -6.34998e-011 0.707107   
     length 0.713539   
     axis -90 45 -2.25915e-014   XYZ
    dof rx rz
    limits (-45.0 45.0)
           (-45.0 45.0)
  end
  begin
     id 24 
     name rclavicle
     direction -0.937751 0.334612 -0.0930482   
     length 3.46287  
     axis 0 0 0   XYZ 
    dof ry rz
    limits (-10.0 20.0)
           (-20.0 0.0)
  end
  begin
     id 25 
     name rhumerus
     direction -1 -4.48962e-011 3.59972e-027  
     length 5.352   
     axis 180 30 90   XYZ
    dof rx ry rz
    limits (-90.0 60.0)
           (-90.0 90.0)
           (-90.0 90.0)
  end
  begin
     id 26 
     name rradius
     direction -1 -4.48987e-011 -3.76925e-027   
     length 3.43721   
     axis 180 30 90   XYZ
    dof rx
    limits (-10.0 170.0)
  end
  begin
     id 27 
     name rwrist
     direction -1 -4.48943e-011 1.28112e-027   
     length 1.7186   
     axis -1.61767e-015 -90 -90   XYZ
    dof ry
    limits (-180.0 0.0)
  end
  begin
     id 28
     name rhand
     direction -1 -4.49027e-011 2.55483e-027   
     length 0.72009   
     axis -1.63363e-015 -90 -90   XYZ
    dof rx rz
    limits (-90.0 90.0)
           (-45.0 45.0)
  end
  begin
     id 29
     name rfingers
     direction -1 -4.48827e-011 5.14506e-027   
     length 0.580555   
     axis -3.26723e-015 -90 -90   XYZ
    dof rx
    limits (0.0 90.0)
  end
  begin
     id 30
     name rthumb
     direction -0.707107 -6.34936e-011 0.707107   
     length 0.833564   
     axis -90 -45 2.25915e-014   XYZ
    dof rx rz
    limits (-45.0 45.0)
           (-45.0 45.0)
  end
:hierarchy
  begin
    root lhipjoint rhipjoint lowerback
    lhipjoint lfemur
    lfemur ltibia
    ltibia lfoot
    lfoot ltoes
    rhipjoint rfemur
    rfemur rtibia
    rtibia rfoot
    rfoot rtoes
    lowerback upperback
    upperback thorax
    thorax lowerneck lclavicle rclavicle
    lowerneck upperneck
    upperneck head
    lclavicle lhumerus
    lhumerus lradius
    lradius lwrist
    lwrist lhand lthumb
    lhand lfingers
    rclavicle rhumerus
    rhumerus rradius
    rradius rwrist
    rwrist rhand rthumb
    rhand rfingers
  end

#!OML:ASF H:\Terrain\Patient Classification 1\Terrain2\Thursday\justin.ASF
:FULLY-SPECIFIED
:DEGREES
1
root -2.86213 23.5024 -0.0277926 -122.469 83.2236 -126.49
lowerback 2.16439 0.116113 4.28092
upperback 2.73672 0.282433 4.15604
thorax 1.59853 0.231754 1.87518
lowerneck -4.67598 -3.83018 -10.793
upperneck 45.5941 -0.483163 2.15239
head 18.0144 -0.679659 3.26542
rclavicle 1.80894e-014 2.78299e-014
rhumerus -29.2994 -12.8082 -74.8425
rradius 30.5809
rwrist -11.1527
rhand -19.7805 14.5479
rfingers 7.12502
rthumb 6.55174 -15.3307
lclavicle 1.80894e-014 2.78299e-014
lhumerus -32.6461 8.22679 86.2331
lradius 31.0374
lwrist -0.296593
lhand -21.8361 19.5551
lfingers 7.12502
lthumb 4.56708 49.4859
rfemur -14.147 -5.144 28.1717
rtibia 36.8716
rfoot -23.8983 -0.968338
rtoes 24.8394
lfemur -17.2857 -1.92015 -14.7357
ltibia 39.2433
lfoot -15.2199 -15.046
ltoes 49.7395
2
root -2.86066 23.5023 -0.0295079 -122.794 83.2681 -126.818
lowerback 2.19151 0.107153 4.17982
upperback 2.7279 0.271415 4.16662
thorax 1.5735 0.223816 1.94234
lowerneck -4.78404 -3.81966 -10.8327
upperneck 45.4943 -0.45688 2.10547
head 17.9787 -0.684487 3.24899
rclavicle -4.37326e-015 3.73715e-014
rhumerus -29.4563 -12.1125 -75.0231
rradius 30.9757
rwrist -11.6541
rhand -19.7831 14.1536
rfingers 7.12502
rthumb 6.5492 -15.7251
lclavicle -4.37326e-015 3.73715e-014
lhumerus -32.6672 8.34726 86.2617
lradius 31.0699
lwrist -0.441879
lhand -21.8351 19.7157
lfingers 7.12502
lthumb 4.56803 49.6464
rfemur -14.1204 -5.25408 28.102
rtibia 36.8188
rfoot -24.0223 -1.42482
rtoes 21.5517
lfemur -17.3414 -1.96407 -14.8443
ltibia 39.3639
lfoot -14.8901 -14.9338
ltoes 50.4334
3
root -2.86155 23.4951 -0.0307629 -122.173 83.1497 -126.13
lowerback 2.35536 0.0229842 4.14289
upperback 2.70007 0.177989 4.37051
thorax 1.45257 0.176253 2.17372
lowerneck -4.94286 -3.72159 -11.1262
upperneck 45.4241 -0.252152 2.11761
head 17.967 -0.653204 3.33565
rclavicle -1.11319e-014 6.36111e-015
rhumerus -29.6152 -12.3694 -74.769
rradius 31.2841
rwrist -10.7311
rhand -19.7283 13.6811
rfingers 7.12502
rthumb 6.60211 -16.1959
lclavicle -1.11319e-014 6.36111e-015
lhumerus -32.773 9.00126 86.329
lradius 31.0744
lwrist -0.720841
lhand -22.0016 19.5924
lfingers 7.12502
lthumb 4.40725 49.5265
rfemur -14.0343 -5.34224 28.2642
rtibia 36.7336
rfoot -23.7429 -1.56963
rtoes 19.1439
lfemur -17.3667 -1.96478 -14.6941
ltibia 39.5504
lfoot -16.0638 -14.5611
ltoes 46.5414
4
root -2.85951 23.4899 -0.0387886 -120.728 82.8151 -124.619
lowerback 2.484 0.0523636 4.55587
upperback 2.62892 0.242247 4.46385
thorax 1.30862 0.215026 2.03792
lowerneck -4.94463 -3.73597 -11.0796
upperneck 45.394 -0.319603 2.18307
head 17.9514 -0.662919 3.3472
rclavicle 1.98785e-015 -5.56597e-015
rhumerus -29.819 -13.7819 -74.3052
rradius 31.128
rwrist -9.11556
rhand -19.4941 13.8342
rfingers 7.12502
rthumb 6.82823 -16.0357
lclavicle 1.98785e-015 -5.56597e-015
lhumerus -32.8754 8.98988 86.352
lradius 31.0487
lwrist -0.862743
lhand -22.1385 19.3672
lfingers 7.12502
lthumb 4.27503 49.3041
rfemur -13.9285 -5.43915 28.641
rtibia 36.679
rfoot -23.4474 -1.70277
rtoes 16.9885
lfemur -17.3733 -1.88212 -14.2888
ltibia 39.7017
lfoot -20.8704 -12.1887
ltoes 24.3055
5
root -2.85498 23.4885 -0.0452296 -120.551 82.7385 -124.46
lowerback 2.46578 0.198889 4.82668
upperback 2.56638 0.43909 4.28424
thorax 1.2577 0.315633 1.69808
lowerneck -4.91704 -3.8227 -10.709
upperneck 45.3303 -0.599356 2.29283
head 17.9132 -0.69799 3.28721
rclavicle -4.37326e-015 -5.00937e-014
rhumerus -29.6699 -14.0623 -74.4183
rradius 30.3239
rwrist -9.26309
rhand -19.5357 14.1916
rfingers 7.12502
rthumb 6.788 -15.6796
lclavicle -4.37326e-015 -5.00937e-014
lhumerus -32.8847 8.28005 86.3016
lradius 31.0624
lwrist -0.694046
lhand -22.022 19.2552
lfingers 7.12502
lthumb 4.3875 49.1897
rfemur -13.9022 -5.59313 28.6888
rtibia 36.6521
rfoot -23.5381 -1.56927
rtoes 17.1513
lfemur -17.4327 -1.83539 -14.25
ltibia 39.8266
lfoot -21.5933 -10.9233
ltoes 12.8215
6
root -2.85321 23.4866 -0.045231 -121.659 82.9696 -125.511
lowerback 2.55625 0.213291 4.54931
upperback 2.59075 0.454383 4.15276
thorax 1.2304 0.317281 1.71592
lowerneck -5.04811 -3.7702 -10.5204
upperneck 45.189 -0.590324 2.2945
head 17.8477 -0.666336 3.24763
rclavicle -9.54166e-015 -4.13472e-014
rhumerus -29.2818 -13.5387 -74.7793
rradius 29.6619
rwrist -9.77946
rhand -19.7467 14.2231
rfingers 7.12502
rthumb 6.58431 -15.6546
lclavicle -9.54166e-015 -4.13472e-014
lhumerus -32.8221 8.11578 86.2362
lradius 31.0861
lwrist -0.463801
lhand -21.8158 19.1927
lfingers 7.12502
lthumb 4.58663 49.123
rfemur -13.8792 -5.89827 28.4571
rtibia 36.6598
rfoot -23.6176 -1.791
rtoes 16.0351
lfemur -17.3849 -1.96933 -14.5716
ltibia 39.9071
lfoot -21.4878 -10.42
ltoes 11.9615
7
root -2.84913 23.4823 -0.047846 -122.479 83.0593 -126.211
lowerback 2.66105 0.113839 4.30645
upperback 2.66877 0.323699 4.22176
thorax 1.24951 0.249501 1.92461
lowerneck -5.29018 -3.67563 -10.6426
upperneck 45.1163 -0.393903 2.22507
head 17.8514 -0.622865 3.26307
rclavicle -5.86415e-015 -4.21423e-014
rhumerus -28.9447 -13.2779 -74.8399
rradius 29.2867
rwrist -9.54355
rhand -19.9374 14.3509
rfingers 7.12502
rthumb 6.40028 -15.5324
lclavicle -5.86415e-015 -4.21423e-014
lhumerus -32.7532 8.60509 86.239
lradius 31.0669
lwrist -0.609782
lhand -21.7652 19.047
lfingers 7.12502
lthumb 4.63546 48.9763
rfemur -13.7683 -5.97082 28.3385
rtibia 36.7085
rfoot -23.4102 -2.22276
rtoes 13.9548
lfemur -17.2542 -2.03663 -14.7296
ltibia 39.9437
lfoot -20.8386 -10.4796
ltoes 13.6633
8
root -2.84313 23.4789 -0.052686 -123.73 83.1051 -127.401
lowerback 2.66617 0.0824749 4.20306
upperback 2.7233 0.276971 4.18813
thorax 1.30243 0.225406 1.9487
lowerneck -5.48612 -3.65056 -10.6266
upperneck 45.0806 -0.353946 2.22017
head 17.8752 -0.609419 3.26287
rclavicle -7.05686e-015 -7.39479e-014
rhumerus -28.7251 -12.9662 -74.938
rradius 28.9678
rwrist -9.61634
rhand -20.1415 14.4302
rfingers 7.12502
rthumb 6.20317 -15.459
lclavicle -7.05686e-015 -7.39479e-014
lhumerus -32.6614 8.77223 86.2259
lradius 31.0417
lwrist -0.756218
lhand -21.834 18.9252
lfingers 7.12502
lthumb 4.56904 48.8559
rfemur -13.6706 -5.86742 28.1487
rtibia 36.7833
rfoot -23.3097 -2.36038
rtoes 13.22
lfemur -17.169 -2.10329 -14.9044
ltibia 39.9627
lfoot -21.7375 -11.1981
ltoes 23.6948
9
root -2.83866 23.4756 -0.0582815 -124.41 83.0977 -128.093
lowerback 2.65742 0.209851 4.4225
upperback 2.67489 0.445011 3.91274
thorax 1.26089 0.310763 1.5388
lowerneck -5.42899 -3.72355 -10.1261
upperneck 44.9541 -0.638518 2.27665
head 17.7859 -0.631891 3.14882
rclavicle 8.34896e-015 0
rhumerus -28.8949 -13.4192 -75.0899
rradius 28.8287
rwrist -9.49331
rhand -19.726 14.2565
rfingers 7.12502
rthumb 6.60428 -15.6205
lclavicle 8.34896e-015 0
lhumerus -32.6164 8.08526 86.054
lradius 31.0481
lwrist -0.535782
lhand -21.7796 18.9826
lfingers 7.12502
lthumb 4.62161 48.9122
rfemur -13.72 -6.05062 28.0994
rtibia 36.8506
rfoot -23.3091 -2.48646
rtoes 12.4637
lfemur -17.1742 -2.33694 -15.017
ltibia 39.9941
lfoot -19.8271 -12.8293
ltoes 42.4446
10
root -2.83474 23.468 -0.0670268 -123.242 82.8706 -127.006
lowerback 2.58841 0.302624 4.89346
upperback 2.60468 0.57404 3.82565
thorax 1.23447 0.381905 1.18471
lowerneck -5.42208 -3.80277 -9.83791
upperneck 44.8047 -0.842226 2.23047
head 17.6985 -0.672175 3.03597
rclavicle 1.42131e-014 1.03368e-014
rhumerus -28.9766 -14.023 -75.0499
rradius 28.5552
rwrist -9.06443
rhand -19.1317 14.3892
rfingers 7.12502
rthumb 7.17804 -15.469
lclavicle 1.42131e-014 1.03368e-014
lhumerus -32.6382 7.68068 85.9918
lradius 31.0921
lwrist -0.449409
lhand -21.5639 18.9885
lfingers 7.12502
lthumb 4.82989 48.9135
rfemur -13.8736 -6.26673 28.3854
rtibia 36.9269
rfoot -23.3211 -2.48145
rtoes 11.8885
lfemur -17.3085 -2.45528 -14.8015
ltibia 40.0085
lfoot -21.8782 -9.89187
ltoes 18.855
11
root -2.82802 23.4606 -0.0773858 -122.441 82.7152 -126.255
lowerback 2.48212 0.284348 4.99795
upperback 2.58996 0.548668 3.99576
thorax 1.27817 0.372478 1.3034
lowerneck -5.54173 -3.7824 -10.0427
upperneck 44.6983 -0.760805 2.1839
head 17.6652 -0.681543 3.05848
rclavicle -1.20265e-014 -3.49861e-014
rhumerus -28.8095 -13.7353 -74.9317
rradius 28.1892
rwrist -8.97481
rhand -19.3814 14.5898
rfingers 7.12502
rthumb 6.93703 -15.2765
lclavicle -1.20265e-014 -3.49861e-014
lhumerus -32.722 8.00983 86.1715
lradius 31.1453
lwrist -0.692733
lhand -21.3204 18.8538
lfingers 7.12502
lthumb 5.065 48.7732
rfemur -13.9891 -6.39448 28.5376
rtibia 37.0923
rfoot -23.5251 -2.44475
rtoes 11.5521
lfemur -17.4034 -2.5339 -14.6697
ltibia 39.9566
lfoot -21.4766 -9.11356
ltoes 12.9943
12
root -2.82177 23.4572 -0.0850809 -122.346 82.7902 -126.124
lowerback 2.48721 0.257632 4.7672
upperback 2.5763 0.512923 4.13051
thorax 1.25698 0.350598 1.57123
lowerneck -5.6451 -3.6875 -10.3521
upperneck 44.6959 -0.594678 2.32325
head 17.685 -0.649424 3.20608
rclavicle 2.01766e-014 4.69132e-014
rhumerus -28.676 -13.2312 -74.8576
rradius 27.9127
rwrist -8.95512
rhand -19.6526 14.4039
rfingers 7.12502
rthumb 6.67522 -15.4709
lclavicle 2.01766e-014 4.69132e-014
lhumerus -32.8351 8.5354 86.2928
lradius 31.1277
lwrist -0.98903
lhand -21.0645 18.595
lfingers 7.12502
lthumb 5.31206 48.5085
rfemur -13.8924 -6.0107 28.38
rtibia 37.1747
rfoot -23.8055 -2.23248
rtoes 13.3513
lfemur -17.3833 -2.50724 -14.7832
ltibia 39.951
lfoot -21.9108 -8.32429
ltoes 6.46552
13
root -2.81787 23.4364 -0.091918 -122.558 82.9113 -126.226
lowerback 2.59721 0.290146 4.59528
upperback 2.58142 0.560746 4.11754
thorax 1.19902 0.370696 1.65192
lowerneck -5.73596 -3.64848 -10.4986
upperneck 44.7007 -0.597003 2.56841
head 17.713 -0.645961 3.34892
rclavicle -2.78299e-015 -5.24792e-014
rhumerus -28.6182 -13.2365 -74.8156
rradius 27.7092
rwrist -8.69377
rhand -19.4076 14.0838
rfingers 7.12502
rthumb 6.91174 -15.7834
lclavicle -2.78299e-015 -5.24792e-014
lhumerus -32.8778 8.55236 86.3612
lradius 31.1416
lwrist -0.812768
lhand -21.1468 18.4983
lfingers 7.12502
lthumb 5.23263 48.4137
rfemur -13.7612 -5.81456 28.1918
rtibia 37.2211
rfoot -24.2103 -1.71617
rtoes 16.9057
lfemur -17.2957 -2.04005 -14.9835
ltibia 39.9512
lfoot -22.4788 -7.57983
ltoes -1.2545
14
root -2.8023 23.4609 -0.103063 -123.067 82.9462 -126.589
lowerback 2.66 0.321684 4.58013
upperback 2.61562 0.60359 4.02999
thorax 1.19999 0.391967 1.56902
lowerneck -5.76641 -3.64074 -10.4514
upperneck 44.6001 -0.695617 2.75188
head 17.6627 -0.656695 3.40629
rclavicle 0 -1.51076e-014
rhumerus -28.6318 -13.4449 -74.8286
rradius 27.5564
rwrist -8.32932
rhand -19.1584 14.0813
rfingers 7.12502
rthumb 7.15222 -15.7779
lclavicle 0 -1.51076e-014
lhumerus -32.9187 8.35195 86.3606
lradius 31.2277
lwrist -0.524195
lhand -21.4164 18.795
lfingers 7.12502
lthumb 4.9723 48.7167
rfemur -13.6543 -7.07221 28.2043
rtibia 37.1749
rfoot -24.2581 -2.43225
rtoes 11.1544
lfemur -17.0285 -2.51772 -14.9485
ltibia 40.0581
lfoot -22.1132 -8.60113
ltoes 5.18812
15
root -2.78795 23.4586 -0.109984 -122.14 82.7704 -125.542
lowerback 2.63905 0.367288 4.8298
upperback 2.6208 0.66892 4.04665
thorax 1.22072 0.429759 1.44657
lowerneck -5.73156 -3.68004 -10.3772
upperneck 44.5095 -0.789484 2.73833
head 17.6044 -0.683014 3.367
rclavicle 2.50469e-014 4.21423e-014
rhumerus -28.684 -13.7015 -74.7529
rradius 27.3077
rwrist -8.01652
rhand -19.2354 14.2981
rfingers 7.12502
rthumb 7.07794 -15.5635
lclavicle 2.50469e-014 4.21423e-014
lhumerus -32.9761 8.4072 86.3567
lradius 31.2206
lwrist -0.63865
lhand -21.4701 19.0459
lfingers 7.12502
lthumb 4.9204 48.9688
rfemur -13.2755 -6.09078 28.2849
rtibia 37.0802
rfoot -24.4479 -1.6573
rtoes 18.0009
lfemur -16.877 -2.54339 -14.6722
ltibia 40.1708
lfoot -22.023 -9.28589
ltoes 8.11769
